<?xml version="1.0" encoding="iso-8859-1"?>
<!-- Generator: Adobe Illustrator 19.0.0, SVG Export Plug-In . SVG Version: 6.00 Build 0)  -->
<svg version="1.1" id="Layer_1" xmlns="http://www.w3.org/2000/svg" xmlns:xlink="http://www.w3.org/1999/xlink" x="0px" y="0px"
	 viewBox="0 0 492.2 492.2" style="enable-background:new 0 0 492.2 492.2;" xml:space="preserve">
<path style="fill:#94B6BF;" d="M386.9,128c-6.4,0-11.2-4.8-11.2-11.2v-1.6c0-51.2-41.6-92.8-92.8-92.8h-74.4
	c-51.2,0-92.8,41.6-92.8,92.8v1.6c0,6.4-4.8,11.2-11.2,11.2c-6.4,0-11.2-4.8-11.2-11.2v-1.6C93.3,52,144.5,0,208.5,0h74.4
	c63.2,0.8,115.2,52,115.2,115.2v1.6C398.1,123.2,393.3,128,386.9,128z"/>
<path style="fill:#74969E;" d="M386.9,128c4.8,0,8.8-2.4,10.4-6.4C390.1,64.8,342.1,20,282.9,20h-74.4
	c-58.4,0-106.4,44.8-113.6,100.8c1.6,4,5.6,6.4,10.4,6.4c6.4,0,11.2-4.8,11.2-11.2v-1.6c0-51.2,41.6-92.8,92.8-92.8h74.4
	c51.2,0,92.8,41.6,92.8,92.8v1.6C375.7,123.2,380.5,128,386.9,128z"/>
<path style="fill:#94B6BF;" d="M178.9,185.6c3.2,3.2,3.2,8.8,0,12.8l0,0c-3.2,3.2-8.8,3.2-12.8,0l-55.2-55.2
	c-3.2-3.2-3.2-8.8,0-12.8l0,0c3.2-3.2,8.8-3.2,12.8,0L178.9,185.6z"/>
<path style="fill:#30AFFC;" d="M172.5,97.6l-12-12c-8.8-8.8-22.4-8.8-31.2,0l-68,68c-8.8,8.8-8.8,22.4,0,31.2l12,12L172.5,97.6z"/>
<path style="fill:#118DEA;" d="M109.3,104.8l-48.8,48.8c-8.8,8.8-8.8,22.4,0,31.2l12,12l80-80l-12-12C131.7,96,118.1,96,109.3,104.8
	z"/>
<path style="fill:#94B6BF;" d="M313.3,185.6c-3.2,3.2-3.2,8.8,0,12.8l0,0c3.2,3.2,8.8,3.2,12.8,0l55.2-55.2c3.2-3.2,3.2-8.8,0-12.8
	l0,0c-3.2-3.2-8.8-3.2-12.8,0L313.3,185.6z"/>
<path style="fill:#30AFFC;" d="M319.7,97.6l12-12c8.8-8.8,22.4-8.8,31.2,0l68,68c8.8,8.8,8.8,22.4,0,31.2l-12,12L319.7,97.6z"/>
<path style="fill:#118DEA;" d="M382.9,104.8l48.8,48.8c8.8,8.8,8.8,22.4,0,31.2l-12,12l-80-80l12-12C360.5,96,374.1,96,382.9,104.8z
	"/>
<g>
	<path style="fill:#94B6BF;" d="M255.7,140c0,4.8-4,9.6-9.6,9.6l0,0c-4.8,0-9.6-4-9.6-9.6v-38.4c0-4.8,4-9.6,9.6-9.6l0,0
		c4.8,0,9.6,4,9.6,9.6V140z"/>
	<path style="fill:#94B6BF;" d="M129.3,421.6c5.6,5.6,5.6,13.6,0,19.2L82.1,488c-5.6,5.6-13.6,5.6-19.2,0l0,0
		c-5.6-5.6-5.6-13.6,0-19.2l47.2-47.2C115.7,416.8,123.7,416.8,129.3,421.6L129.3,421.6z"/>
</g>
<path style="fill:#74969E;" d="M110.1,421.6l-17.6,17.6c5.6,7.2,11.2,14.4,17.6,20.8l19.2-19.2c5.6-5.6,5.6-13.6,0-19.2
	C123.7,416.8,115.7,416.8,110.1,421.6z"/>
<path style="fill:#94B6BF;" d="M362.9,421.6c-5.6,5.6-5.6,13.6,0,19.2l47.2,47.2c5.6,5.6,13.6,5.6,19.2,0l0,0
	c5.6-5.6,5.6-13.6,0-19.2l-47.2-47.2C376.5,416.8,368.5,416.8,362.9,421.6L362.9,421.6z"/>
<path style="fill:#74969E;" d="M399.7,439.2l-17.6-17.6c-5.6-5.6-13.6-5.6-19.2,0s-5.6,13.6,0,19.2l19.2,19.2
	C388.5,453.6,394.1,446.4,399.7,439.2z"/>
<path style="fill:#30AFFC;" d="M433.3,304.8c0,103.2-84,187.2-187.2,187.2S58.9,408,58.9,304.8s84-187.2,187.2-187.2
	S433.3,201.6,433.3,304.8z"/>
<path style="fill:#118DEA;" d="M433.3,304.8c0,103.2-84,187.2-187.2,187.2S58.9,408,58.9,304.8s84-154.4,187.2-154.4
	S433.3,201.6,433.3,304.8z"/>
<path style="fill:#0F58D8;" d="M380.5,304.8c0,74.4-60,152.8-134.4,152.8s-134.4-78.4-134.4-152.8s60-111.2,134.4-111.2
	S380.5,230.4,380.5,304.8z"/>
<circle style="fill:#C8E3ED;" cx="246.1" cy="304.8" r="134.4"/>
<path style="fill:#EBF7F7;" d="M380.5,304.8c0,74.4-60,134.4-134.4,134.4s-134.4-60-134.4-134.4s60-111.2,134.4-111.2
	S380.5,230.4,380.5,304.8z"/>
<path style="fill:#30AFFC;" d="M251.7,296c0,3.2-2.4,5.6-5.6,5.6l0,0c-3.2,0-5.6-2.4-5.6-5.6V189.6c0-3.2,2.4-5.6,5.6-5.6l0,0
	c3.2,0,5.6,2.4,5.6,5.6V296z"/>
<path style="fill:#E2295E;" d="M317.3,304.8c0,5.6-4,9.6-9.6,9.6h-55.2c-5.6,0-9.6-4-9.6-9.6l0,0c0-5.6,4-9.6,9.6-9.6h55.2
	C313.3,295.2,317.3,300,317.3,304.8L317.3,304.8z"/>
<circle style="fill:#C8E3ED;" cx="246.1" cy="304.8" r="14.4"/>
<path style="fill:#BFD2D6;" d="M296.5,83.2c0,10.4-8.8,19.2-19.2,19.2h-63.2c-10.4,0-19.2-8.8-19.2-19.2l0,0
	c0-10.4,8.8-19.2,19.2-19.2h63.2C288.5,64,296.5,72.8,296.5,83.2L296.5,83.2z"/>
<path style="fill:#CFDFE2;" d="M277.3,64h-63.2c-7.2,0-14.4,4.8-16.8,11.2c3.2,6.4,9.6,11.2,16.8,11.2h63.2
	c7.2,0,14.4-4.8,16.8-11.2C291.7,68,285.3,64,277.3,64z"/>
<g>
</g>
<g>
</g>
<g>
</g>
<g>
</g>
<g>
</g>
<g>
</g>
<g>
</g>
<g>
</g>
<g>
</g>
<g>
</g>
<g>
</g>
<g>
</g>
<g>
</g>
<g>
</g>
<g>
</g>
</svg>